<svg width="1152" height="146" viewBox="0 0 1152 146" fill="none" xmlns="http://www.w3.org/2000/svg">
<g filter="url(#filter0_d_108_88)">
<path d="M1140 0.0693359V70.0813L1114.87 73.6693L1140 75.9693V128.869L1131.75 129.053L1002.33 132.089L845.291 135.769L739.309 136.068L716.921 136.114L348.648 137.126L351.961 132.112L358.677 121.969L312.483 135.125L305.081 137.241L286.988 137.287L145.162 137.678H145.139L0 138.069V38.2953L22.8457 36.8693L0 33.4193V11.5693L39.2946 10.5803H39.3174L102.737 8.99334L459.198 0.0693359H603.88L614.549 9.26934L629.787 0.0693359H1140Z" fill="#A17148"/>
<path opacity="0.17" d="M1140 49.0127V57.2007C1008.77 96.3007 863.75 63.2727 727.498 86.6867C683.931 94.1617 640.547 107.387 596.455 104.167C554.168 100.97 513.914 82.5467 471.535 81.1667C442.955 80.2007 414.695 87.0087 386.184 89.2397C356.187 91.5397 326.031 88.8947 295.989 87.1697C218.775 82.708 141.327 84.7314 64.4477 93.2187C43.0184 95.5187 21.4978 98.4627 0 99.4517V87.9517C9.57234 85.8127 19.2818 83.9037 29.6994 82.2247C99.8814 70.7247 170.634 59.2247 241.707 61.8007C296.971 63.8477 352.052 74.4737 407.202 70.6097C447.41 67.8037 488.19 57.3847 527.461 66.5847C540.483 69.6437 553.026 74.8187 566.299 76.8657C592.366 80.9137 618.501 72.5647 644.317 67.1367C687.198 58.0747 731.268 56.9017 775.086 55.7747C896.054 52.6697 1018.67 51.8187 1140 49.0127Z" fill="#C49559"/>
<path opacity="0.17" d="M505.095 0.0693359C485.865 14.8547 463.532 25.019 439.802 29.7853C417.87 34.1323 394.842 33.8563 373.984 41.9063C367.13 44.5283 360.528 48.0703 353.286 49.0823C343.028 50.5313 332.725 46.7823 322.81 44.2063C292.516 36.3863 260.715 38.7323 229.439 38.2723C172.119 37.4673 115.394 27.1403 59.216 15.6633C52.4754 14.4295 45.8269 12.7311 39.3174 10.5803L102.806 8.99334C130.35 17.1786 158.96 21.1483 187.677 20.7693C220.118 20.2633 252.582 14.2143 284.817 17.8023C297.405 19.2053 309.81 22.0803 322.421 23.4603C342.019 25.6182 361.843 24.1765 380.929 19.2053C391.278 16.5143 401.49 12.7653 412.136 12.0523C420.201 11.5233 428.311 12.7423 436.375 12.2133C449.535 11.3623 461.757 5.95734 473.888 0.184336L505.095 0.0693359Z" fill="#C49559"/>
<path opacity="0.17" d="M879.696 0.069C859.295 1.771 838.574 1.081 818.538 4.945C810.474 6.486 802.546 8.74 794.665 10.856C735.539 26.502 674.524 33.71 613.407 32.269C607.444 32.131 599.288 29.348 600.499 23.46C627.274 19.021 654.209 14.536 679.728 5.313C684.48 3.588 689.186 1.702 693.938 0L879.696 0.069Z" fill="#C49559"/>
<path opacity="0.17" d="M469.959 119.002C462.763 123.602 453.967 124.361 445.4 125.005L351.961 132.112L358.678 121.969L312.484 135.125L302.888 135.861C297.588 136.275 292.265 136.666 286.896 137.287L145.07 137.678L146.875 137.31L233.095 119.83C246.802 117.024 260.647 114.241 274.651 114.034C291.191 113.781 307.595 117.139 324.112 118.22C343.394 119.462 362.698 117.576 381.98 116.656C411.324 115.247 440.731 116.031 469.959 119.002Z" fill="#C49559"/>
<path opacity="0.17" d="M1131.75 129.053L1002.33 132.089C974.917 125.695 947.502 118.979 919.379 117.967C902.111 117.703 884.844 118.532 867.68 120.451L813.147 125.396C788.382 127.696 763.298 129.996 739.31 136.068H716.921C729.303 131.468 742.051 127.834 750.321 124.752C767.09 118.45 784.361 112.723 802.227 111.941C811.776 111.527 821.326 112.539 830.852 112.194C855.571 111.343 879.559 101.269 904.256 102.212C917.529 102.695 930.482 106.306 943.687 107.663C969.069 110.285 995.227 104.512 1019.92 110.975C1033.38 114.494 1045.78 121.532 1059.33 124.775C1075.55 128.57 1092.5 126.661 1109.16 126.799C1116.75 126.755 1124.32 127.51 1131.75 129.053Z" fill="#C49559"/>
</g>
<defs>
<filter id="filter0_d_108_88" x="0" y="0" width="1152" height="147.069" filterUnits="userSpaceOnUse" color-interpolation-filters="sRGB">
<feFlood flood-opacity="0" result="BackgroundImageFix"/>
<feColorMatrix in="SourceAlpha" type="matrix" values="0 0 0 0 0 0 0 0 0 0 0 0 0 0 0 0 0 0 127 0" result="hardAlpha"/>
<feOffset dx="12" dy="9"/>
<feComposite in2="hardAlpha" operator="out"/>
<feColorMatrix type="matrix" values="0 0 0 0 0 0 0 0 0 0 0 0 0 0 0 0 0 0 0.1 0"/>
<feBlend mode="normal" in2="BackgroundImageFix" result="effect1_dropShadow_108_88"/>
<feBlend mode="normal" in="SourceGraphic" in2="effect1_dropShadow_108_88" result="shape"/>
</filter>
</defs>
</svg>
